<svg xmlns="http://www.w3.org/2000/svg" height="500.718pt" version="1.1" viewBox="1 1 500.718 500.718" width="500.718pt">
<g id="surface1">
<path d="M 10.949219 116.953125 C 4.90625 116.953125 0 121.859375 0 127.90625 L 0 372.984375 C 0 379.027344 4.90625 383.933594 10.949219 383.933594 C 16.996094 383.933594 21.902344 379.03125 21.902344 372.984375 L 21.902344 127.90625 C 21.902344 121.859375 16.996094 116.953125 10.949219 116.953125 Z M 10.949219 116.953125 " style=" stroke:none;fill-rule:nonzero;fill:rgb(0%,0%,0%);fill-opacity:1;" />
<path d="M 490.050781 116.953125 C 484.003906 116.953125 479.097656 121.859375 479.097656 127.90625 L 479.097656 372.984375 C 479.097656 379.03125 484.003906 383.9375 490.050781 383.9375 C 496.09375 383.9375 501 379.03125 501 372.984375 L 501 127.90625 C 501 121.859375 496.09375 116.953125 490.050781 116.953125 Z M 490.050781 116.953125 " style=" stroke:none;fill-rule:nonzero;fill:rgb(0%,0%,0%);fill-opacity:1;" />
<path d="M 432.226562 240.917969 L 378.460938 209.925781 C 373.226562 206.90625 366.523438 208.699219 363.5 213.933594 C 362.539062 215.613281 362.023438 217.515625 362.035156 219.453125 L 362.035156 239.496094 L 261.394531 239.496094 L 261.394531 138.855469 L 281.765625 138.855469 C 287.808594 138.855469 292.714844 133.949219 292.714844 127.90625 C 292.714844 125.296875 291.785156 122.769531 290.085938 120.785156 L 259.972656 68.660156 C 256.9375 63.425781 250.238281 61.652344 245.003906 64.683594 C 243.347656 65.636719 241.980469 67.019531 241.027344 68.660156 L 209.925781 122.429688 C 206.90625 127.664062 208.699219 134.367188 213.933594 137.386719 C 215.613281 138.351562 217.515625 138.867188 219.453125 138.855469 L 239.496094 138.855469 L 239.496094 239.492188 L 138.855469 239.492188 L 138.855469 219.34375 C 138.878906 213.300781 133.996094 208.371094 127.949219 208.347656 C 126.011719 208.339844 124.105469 208.851562 122.429688 209.816406 L 68.660156 240.917969 C 63.425781 243.953125 61.652344 250.652344 64.6875 255.886719 C 65.640625 257.539062 67.019531 258.910156 68.660156 259.863281 L 122.539062 290.960938 C 127.773438 293.984375 134.476562 292.191406 137.5 286.953125 C 138.460938 285.277344 138.976562 283.375 138.964844 281.433594 L 138.964844 261.394531 L 239.496094 261.394531 L 239.496094 362.035156 L 219.34375 362.035156 C 213.300781 362.011719 208.371094 366.894531 208.351562 372.941406 C 208.339844 374.878906 208.855469 376.785156 209.820312 378.460938 L 240.917969 432.339844 C 243.953125 437.574219 250.65625 439.347656 255.890625 436.3125 C 257.542969 435.359375 258.910156 433.980469 259.863281 432.339844 L 290.964844 378.460938 C 293.988281 373.226562 292.191406 366.523438 286.957031 363.5 C 285.28125 362.539062 283.375 362.023438 281.4375 362.035156 L 261.398438 362.035156 L 261.398438 261.394531 L 362.035156 261.394531 L 362.035156 281.546875 C 362.011719 287.589844 366.894531 292.519531 372.941406 292.539062 C 374.878906 292.550781 376.785156 292.035156 378.460938 291.070312 L 432.339844 259.972656 C 437.574219 256.9375 439.347656 250.234375 436.3125 245 C 435.359375 243.347656 433.980469 241.980469 432.339844 241.027344 Z M 116.953125 262.820312 L 96.039062 250.445312 L 117.066406 238.289062 Z M 262.601562 383.933594 L 250.445312 404.851562 L 238.289062 383.824219 Z M 238.289062 116.953125 L 250.445312 96.039062 L 262.601562 117.066406 Z M 383.933594 262.601562 L 383.933594 238.398438 L 404.851562 250.445312 Z M 383.933594 262.601562 " style=" stroke:none;fill-rule:nonzero;fill:rgb(0%,0%,0%);fill-opacity:1;" />
<path d="M 127.90625 21.902344 L 372.984375 21.902344 C 379.027344 21.902344 383.933594 16.996094 383.933594 10.949219 C 383.933594 4.90625 379.03125 0 372.984375 0 L 127.90625 0 C 121.859375 0 116.953125 4.90625 116.953125 10.949219 C 116.953125 16.996094 121.859375 21.902344 127.90625 21.902344 Z M 127.90625 21.902344 " style=" stroke:none;fill-rule:nonzero;fill:rgb(0%,0%,0%);fill-opacity:1;" />
<path d="M 372.984375 479.097656 L 127.90625 479.097656 C 121.859375 479.097656 116.953125 484.003906 116.953125 490.050781 C 116.953125 496.09375 121.859375 501 127.90625 501 L 372.984375 501 C 379.027344 501 383.933594 496.09375 383.933594 490.050781 C 383.933594 484.003906 379.03125 479.097656 372.984375 479.097656 Z M 372.984375 479.097656 " style=" stroke:none;fill-rule:nonzero;fill:rgb(0%,0%,0%);fill-opacity:1;" />
</g>
</svg>